<?xml version="1.0" encoding="UTF-8" standalone="no"?>
<!DOCTYPE svg PUBLIC "-//W3C//DTD SVG 1.1//EN"
 "http://www.w3.org/Graphics/SVG/1.1/DTD/svg11.dtd">
<!-- Generated by graphviz version 2.42.4 (0)
 -->
<!-- Title: Xen virtual block device backend state diagram Pages: 1 -->
<svg width="285pt" height="260pt"
 viewBox="0.00 0.00 284.71 260.00" xmlns="http://www.w3.org/2000/svg" xmlns:xlink="http://www.w3.org/1999/xlink">
<g id="graph0" class="graph" transform="scale(1 1) rotate(0) translate(4 256)">
<title>Xen virtual block device backend state diagram</title>
<polygon fill="white" stroke="transparent" points="-4,4 -4,-256 280.71,-256 280.71,4 -4,4"/>
<!-- start -->
<g id="node1" class="node">
<title>start</title>
<ellipse fill="black" stroke="black" cx="42.56" cy="-234" rx="7.2" ry="7.2"/>
</g>
<!-- XenbusStateInitWait -->
<g id="node2" class="node">
<title>XenbusStateInitWait</title>
<ellipse fill="none" stroke="black" cx="140.56" cy="-234" rx="72.52" ry="18"/>
<text text-anchor="middle" x="140.56" y="-231.2" font-family="sans-serif" font-size="11.00">XenbusStateInitWait</text>
</g>
<!-- start&#45;&gt;XenbusStateInitWait -->
<g id="edge1" class="edge">
<title>start&#45;&gt;XenbusStateInitWait</title>
<path fill="none" stroke="black" d="M49.83,-234C52.32,-234 54.82,-234 57.31,-234"/>
<polygon fill="black" stroke="black" points="57.55,-237.5 67.55,-234 57.55,-230.5 57.55,-237.5"/>
</g>
<!-- XenbusStateInitWait&#45;&gt;XenbusStateInitWait -->
<g id="edge2" class="edge">
<title>XenbusStateInitWait&#45;&gt;XenbusStateInitWait</title>
<path fill="none" stroke="black" d="M200.14,-247.47C217.69,-247.03 231.32,-242.54 231.32,-234 231.32,-223.88 212.18,-219.45 190.04,-220.71"/>
<polygon fill="black" stroke="black" points="200.1,-243.96 190.04,-247.29 199.98,-250.96 200.1,-243.96"/>
</g>
<!-- XenbusStateConnected -->
<g id="node3" class="node">
<title>XenbusStateConnected</title>
<ellipse fill="none" stroke="#cc0000" cx="140.56" cy="-162" rx="81.56" ry="18"/>
<text text-anchor="middle" x="140.56" y="-159.2" font-family="sans-serif" font-size="11.00" fill="#cc0000">XenbusStateConnected</text>
</g>
<!-- XenbusStateInitWait&#45;&gt;XenbusStateConnected -->
<g id="edge3" class="edge">
<title>XenbusStateInitWait&#45;&gt;XenbusStateConnected</title>
<path fill="none" stroke="black" d="M140.56,-215.7C140.56,-207.98 140.56,-198.71 140.56,-190.11"/>
<polygon fill="black" stroke="black" points="144.06,-190.1 140.56,-180.1 137.06,-190.1 144.06,-190.1"/>
</g>
<!-- XenbusStateClosing -->
<g id="node4" class="node">
<title>XenbusStateClosing</title>
<ellipse fill="none" stroke="#cc0000" cx="71.56" cy="-90" rx="71.62" ry="18"/>
<text text-anchor="middle" x="71.56" y="-87.2" font-family="sans-serif" font-size="11.00" fill="#cc0000">XenbusStateClosing</text>
</g>
<!-- XenbusStateInitWait&#45;&gt;XenbusStateClosing -->
<g id="edge5" class="edge">
<title>XenbusStateInitWait&#45;&gt;XenbusStateClosing</title>
<path fill="none" stroke="black" d="M98.16,-219.28C79.8,-210.99 60.13,-198.39 49.56,-180 38.41,-160.61 46.13,-135.69 55.36,-117.16"/>
<polygon fill="black" stroke="black" points="58.57,-118.58 60.23,-108.11 52.41,-115.26 58.57,-118.58"/>
</g>
<!-- XenbusStateClosed -->
<g id="node5" class="node">
<title>XenbusStateClosed</title>
<ellipse fill="none" stroke="black" cx="189.56" cy="-18" rx="69.31" ry="18"/>
<text text-anchor="middle" x="189.56" y="-15.2" font-family="sans-serif" font-size="11.00">XenbusStateClosed</text>
</g>
<!-- XenbusStateInitWait&#45;&gt;XenbusStateClosed -->
<g id="edge8" class="edge">
<title>XenbusStateInitWait&#45;&gt;XenbusStateClosed</title>
<path fill="none" stroke="black" d="M201.15,-217.42C219.94,-209.44 238.58,-197.55 249.56,-180 277.27,-135.71 238.97,-76.66 212.02,-43.78"/>
<polygon fill="black" stroke="black" points="199.69,-214.24 191.65,-221.15 202.24,-220.76 199.69,-214.24"/>
<polygon fill="black" stroke="black" points="214.59,-41.39 205.46,-36.01 209.24,-45.9 214.59,-41.39"/>
</g>
<!-- XenbusStateConnected&#45;&gt;XenbusStateConnected -->
<g id="edge4" class="edge">
<title>XenbusStateConnected&#45;&gt;XenbusStateConnected</title>
<path fill="none" stroke="black" d="M195.72,-175.33C219.73,-176.46 240.34,-172.02 240.34,-162 240.34,-153.43 225.26,-148.94 205.86,-148.53"/>
<polygon fill="black" stroke="black" points="205.67,-145.03 195.72,-148.67 205.76,-152.03 205.67,-145.03"/>
</g>
<!-- XenbusStateConnected&#45;&gt;XenbusStateClosing -->
<g id="edge6" class="edge">
<title>XenbusStateConnected&#45;&gt;XenbusStateClosing</title>
<path fill="none" stroke="#cc0000" stroke-width="2" d="M116.62,-136.71C109.71,-129.71 102.18,-122.06 95.28,-115.07"/>
<polygon fill="#cc0000" stroke="#cc0000" stroke-width="2" points="114.34,-139.39 123.86,-144.05 119.33,-134.48 114.34,-139.39"/>
<polygon fill="#cc0000" stroke="#cc0000" stroke-width="2" points="97.62,-112.45 88.11,-107.79 92.64,-117.37 97.62,-112.45"/>
</g>
<!-- XenbusStateConnected&#45;&gt;XenbusStateClosed -->
<g id="edge9" class="edge">
<title>XenbusStateConnected&#45;&gt;XenbusStateClosed</title>
<path fill="none" stroke="black" d="M157.16,-135.35C162.05,-126.91 167.03,-117.29 170.56,-108 178.16,-87.97 183.04,-64.18 185.95,-46.24"/>
<polygon fill="black" stroke="black" points="154.12,-133.62 151.96,-143.99 160.11,-137.23 154.12,-133.62"/>
<polygon fill="black" stroke="black" points="189.44,-46.58 187.48,-36.17 182.52,-45.53 189.44,-46.58"/>
</g>
<!-- XenbusStateClosing&#45;&gt;XenbusStateClosing -->
<g id="edge7" class="edge">
<title>XenbusStateClosing&#45;&gt;XenbusStateClosing</title>
<path fill="none" stroke="black" d="M120.38,-103.29C142.23,-104.55 161.12,-100.12 161.12,-90 161.12,-81.54 147.92,-77.05 130.83,-76.55"/>
<polygon fill="black" stroke="black" points="130.33,-73.06 120.38,-76.71 130.44,-80.05 130.33,-73.06"/>
</g>
<!-- XenbusStateClosing&#45;&gt;XenbusStateClosed -->
<g id="edge10" class="edge">
<title>XenbusStateClosing&#45;&gt;XenbusStateClosed</title>
<path fill="none" stroke="black" d="M107.33,-67.78C122.13,-59 139.26,-48.84 154.03,-40.07"/>
<polygon fill="black" stroke="black" points="105.15,-65 98.34,-73.12 108.72,-71.02 105.15,-65"/>
<polygon fill="black" stroke="black" points="156.07,-42.93 162.89,-34.82 152.5,-36.91 156.07,-42.93"/>
</g>
<!-- XenbusStateClosed&#45;&gt;XenbusStateClosed -->
<g id="edge11" class="edge">
<title>XenbusStateClosed&#45;&gt;XenbusStateClosed</title>
<path fill="none" stroke="black" d="M236.63,-31.26C258.07,-32.62 276.71,-28.2 276.71,-18 276.71,-9.48 263.69,-4.99 246.89,-4.54"/>
<polygon fill="black" stroke="black" points="246.56,-1.04 236.63,-4.74 246.7,-8.04 246.56,-1.04"/>
</g>
</g>
</svg>
